Coordinates
version=1
nRows=24
nColumns=33
inDegrees=yes

Units are S.I. units (second, meters, Newtons, ...)
Angles are in degrees.

endheader
time	ground_thorax_rot_x	ground_thorax_rot_y	ground_thorax_rot_z	ground_thorax_tx	ground_thorax_ty	ground_thorax_tz	clav_prot_r	clav_elev_r	scapula_abduction_r	scapula_elevation_r	scapula_upward_rot_r	scapula_winging_r	shoulder_elv_r	plane_of_elev_r	axial_rot_r	elbow_flexion_r	pro_sup_r	wrist_flex_r	wrist_dev_r	clav_prot_l	clav_elev_l	scapula_abduction_l	scapula_elevation_l	scapula_upward_rot_l	scapula_winging_l	shoulder_elv_l	plane_of_elev_l	axial_rot_l	elbow_flexion_l	pro_sup_l	wrist_flex_l	wrist_dev_l	
0.7100	23.724440	38.395687	1.607128	0.026885	1.007477	-0.048584	-22.870275	31.246910	-24.754660	21.875805	45.000000	-12.424866	-7.171242	-90.000000	14.453336	74.345433	10.668650	42.523393	-23.088880	17.324968	-2.846572	-45.000000	-1.120518	10.503366	21.948829	15.179710	-52.079237	-25.907253	64.063020	34.102008	-3.164330	-24.999999	
0.7200	23.751841	38.374808	1.636477	0.026868	1.007352	-0.048423	-22.859130	31.243522	-24.728011	21.874549	45.000000	-12.421037	-7.043885	-90.000000	14.326224	74.576579	10.711025	41.879370	-22.805456	17.360960	-3.148177	-45.000000	-0.913062	10.397793	21.853084	15.461488	-52.100731	-26.029087	64.200408	34.168103	-3.066268	-24.999999	
0.7300	23.794129	38.348560	1.659247	0.026848	1.007257	-0.048236	-22.847381	31.242229	-24.702914	21.875204	45.000000	-12.416395	-6.902388	-90.000000	14.185000	74.830352	10.763244	41.203799	-22.493755	17.405013	-3.485408	-45.000000	-0.684720	10.266372	21.746761	15.775309	-52.116227	-26.159672	64.351782	34.223497	-2.960697	-24.999998	
0.7400	23.842057	38.323076	1.677942	0.026814	1.007102	-0.048081	-22.831053	31.246309	-24.676185	21.881064	45.000000	-12.408002	-6.766528	-90.000000	14.049354	75.048615	10.828430	40.843085	-22.268282	17.449367	-3.771243	-45.000000	-0.498040	10.129731	21.656424	16.025567	-52.063662	-26.239676	64.460361	34.200597	-2.894333	-24.999997	
0.7500	23.903000	38.301649	1.689057	0.026768	1.006926	-0.047939	-22.811655	31.257694	-24.653591	21.893569	45.000000	-12.396011	-6.626312	-90.000000	13.909339	75.259211	10.904676	40.642319	-22.073481	17.499622	-4.049784	-45.000000	-0.322985	9.971363	21.568476	16.263632	-51.961601	-26.296891	64.562497	34.117527	-2.842762	-24.999994	
0.7600	23.985353	38.285187	1.691144	0.026703	1.006736	-0.047787	-22.789992	31.280233	-24.642081	21.915897	45.000000	-12.379485	-6.473722	-90.000000	13.756973	75.487566	10.989048	40.553052	-21.884557	17.564907	-4.345409	-45.000000	-0.149035	9.759923	21.476317	16.527632	-51.801217	-26.352742	64.679206	33.952521	-2.783827	-24.999990	
0.7700	24.069023	38.280554	1.696062	0.026621	1.006538	-0.047649	-22.766751	31.309692	-24.637170	21.944335	45.000000	-12.360197	-6.321281	-90.000000	13.604772	75.727158	11.060229	40.494779	-21.700330	17.636290	-4.637612	-45.000000	0.016056	9.526029	21.385460	16.810930	-51.602204	-26.417346	64.817508	33.734285	-2.703332	-24.999981	
0.7800	24.159451	38.283070	1.700091	0.026519	1.006341	-0.047500	-22.743538	31.344003	-24.639116	21.976916	45.000000	-12.339360	-6.160858	-90.000000	13.444628	76.005291	11.113399	40.399636	-21.491562	17.718390	-4.947340	-45.000000	0.184432	9.254256	21.290069	17.139867	-51.367875	-26.503058	64.993060	33.458198	-2.578215	-24.999967	
0.7900	24.227699	38.298744	1.718541	0.026403	1.006142	-0.047387	-22.720664	31.374102	-24.635855	22.005861	45.000000	-12.320087	-6.013766	-90.000000	13.297808	76.287344	11.126631	40.279106	-21.293916	17.794092	-5.220409	-45.000000	0.329304	9.002148	21.205277	17.460192	-51.113446	-26.592278	65.183332	33.155198	-2.412265	-24.999941	
0.8000	24.298779	38.327658	1.737035	0.026270	1.005937	-0.047265	-22.701605	31.406576	-24.643546	22.036303	45.000000	-12.301716	-5.861027	-90.000000	13.145389	76.612089	11.087158	40.094782	-21.057827	17.884036	-5.501070	-45.000000	0.465195	8.696869	21.119467	17.831094	-50.802454	-26.697301	65.413697	32.742292	-2.142205	-24.999894	
0.8100	24.361070	38.375299	1.759612	0.026130	1.005735	-0.047166	-22.686584	31.435889	-24.654889	22.063471	45.000000	-12.286216	-5.712141	-90.000000	12.996840	76.945503	10.995519	39.870554	-20.805469	17.977063	-5.766630	-45.000000	0.585044	8.377516	21.038042	18.213148	-50.446745	-26.795803	65.663402	32.249935	-1.787800	-24.999810	
0.8200	24.445937	38.439018	1.758646	0.025975	1.005531	-0.047043	-22.680559	31.463861	-24.682330	22.088191	45.000000	-12.274950	-5.544635	-90.000000	12.829764	77.325379	10.848853	39.591105	-20.495892	18.093949	-6.065900	-45.000000	0.706625	7.970389	20.948549	18.665940	-50.001512	-26.893439	65.953218	31.590329	-1.294361	-24.999660	
0.8300	24.529451	38.519780	1.749716	0.025819	1.005341	-0.046942	-22.680559	31.481982	-24.707961	22.103628	45.000000	-12.269408	-5.375459	-90.000000	12.661057	77.704221	10.664578	39.301835	-20.180568	18.212933	-6.358782	-45.000000	0.820037	7.553167	20.860757	19.121821	-49.506497	-26.968594	66.247000	30.857463	-0.730703	-24.999391	
0.8400	24.634894	38.615247	1.714929	0.025658	1.005149	-0.046818	-22.690346	31.494785	-24.745622	22.113107	45.000000	-12.269667	-5.187338	-90.000000	12.473505	78.125238	10.425878	38.964218	-19.818667	18.350996	-6.683428	-45.000000	0.938321	7.065442	20.764196	19.632380	-48.930581	-27.025282	66.568762	29.985097	-0.034713	-24.998908	
0.8500	24.728716	38.719863	1.681875	0.025508	1.004972	-0.046723	-22.701899	31.494458	-24.768292	22.111130	45.000000	-12.274827	-5.001960	-90.000000	12.288691	78.531463	10.169239	38.640965	-19.475912	18.476144	-6.987005	-45.000000	1.052326	6.622985	20.671046	20.098663	-48.346199	-27.034511	66.870293	29.135986	0.676297	-24.998045	
0.8600	24.830124	38.829006	1.630631	0.025361	1.004793	-0.046625	-22.719312	31.481418	-24.784700	22.097473	45.000000	-12.286412	-4.804614	-90.000000	12.091947	78.966269	9.867098	38.290510	-19.108075	18.603444	-7.294175	-45.000000	1.165360	6.169486	20.575306	20.557998	-47.711840	-26.981574	67.168461	28.239588	1.491973	-24.996496	
0.8700	24.914300	38.941876	1.590246	0.025230	1.004632	-0.046560	-22.733837	31.456796	-24.779092	22.074369	45.000000	-12.300414	-4.610846	-90.000000	11.898721	79.383752	9.561630	37.953295	-18.757040	18.712301	-7.574301	-45.000000	1.274912	5.781158	20.483886	20.948874	-47.085896	-26.862560	67.431861	27.428695	2.304563	-24.993730	
0.8800	25.017692	39.062992	1.528344	0.025101	1.004482	-0.046477	-22.755346	31.426097	-24.778803	22.045104	45.000000	-12.319431	-4.393825	-90.000000	11.682268	79.846830	9.209667	37.547314	-18.337639	18.834759	-7.882891	-45.000000	1.391123	5.339949	20.382720	21.357083	-46.385237	-26.669565	67.694731	26.563080	3.261979	-24.988750	
0.8900	25.110645	39.191775	1.474417	0.024982	1.004351	-0.046413	-22.775534	31.387359	-24.764706	22.009190	45.000000	-12.340267	-4.173565	-89.999999	11.462517	80.303413	8.858853	37.130608	-17.909750	18.950267	-8.181220	-45.000000	1.505038	4.921193	20.282445	21.730520	-45.663594	-26.424986	67.923861	25.762789	4.232178	-24.979900	
0.9000	25.220435	39.329482	1.396554	0.024854	1.004219	-0.046332	-22.803947	31.339449	-24.754222	21.964286	45.000000	-12.367255	-3.930993	-89.999999	11.220492	80.810237	8.455450	36.633762	-17.403014	19.087828	-8.502170	-45.000000	1.609789	4.411713	20.177146	22.140913	-44.822386	-26.112774	68.139704	24.883493	5.376038	-24.963849	
0.9100	25.322256	39.475066	1.315109	0.024725	1.004095	-0.046264	-22.834693	31.276811	-24.728163	21.906532	45.000000	-12.399388	-3.684600	-89.999998	10.974619	81.317019	8.048207	36.123535	-16.884956	19.225686	-8.813311	-45.000000	1.703260	3.893169	20.074693	22.542681	-43.920376	-25.770495	68.312664	24.045950	6.532356	-24.935652	
0.9200	25.435598	39.628771	1.213211	0.024584	1.003974	-0.046183	-22.873328	31.202336	-24.701579	21.837616	45.000000	-12.438374	-3.418048	-89.999996	10.708630	81.867690	7.590424	35.531626	-16.290650	19.386236	-9.143784	-45.000000	1.781838	3.275527	19.968725	22.986986	-42.888153	-25.376510	68.462018	23.158742	7.823035	-24.883593	
0.9300	25.526411	39.788078	1.131944	0.024448	1.003862	-0.046122	-22.907512	31.118561	-24.653747	21.761479	45.000000	-12.477972	-3.156282	-89.999992	10.447406	82.401017	7.140175	34.944210	-15.705368	19.543984	-9.459853	-45.000000	1.847047	2.655965	19.866997	23.425776	-41.820696	-24.992373	68.570474	22.352212	9.051136	-24.794668	
0.9400	25.615097	39.957269	1.060635	0.024299	1.003750	-0.046056	-22.939086	31.035297	-24.602032	21.686223	45.000000	-12.516268	-2.883573	-89.999986	10.175298	82.959362	6.634801	34.276253	-15.043024	19.729138	-9.794710	-45.000000	1.886714	1.906793	19.763297	23.927917	-40.621510	-24.595088	68.670449	21.518002	10.376908	-24.623297	
